<svg version="1.1" id="Layer_1" xmlns="http://www.w3.org/2000/svg" xmlns:xlink="http://www.w3.org/1999/xlink" x="0px" y="0px"
	 width="100%" viewBox="0 0 560 560" enable-background="new 0 0 560 560" xml:space="preserve">
<path fill="#000000" opacity="1.000000" stroke="none" 
	d="
M415.000000,561.000000 
	C316.979095,561.000000 218.958206,561.000000 120.511887,560.699097 
	C119.460114,552.614319 115.197739,547.423889 108.168983,544.633789 
	C101.170609,541.855713 96.357529,536.854431 92.165543,530.859741 
	C83.650497,518.682800 78.455902,505.013519 73.892937,491.052277 
	C72.014740,485.305634 70.251961,479.223053 65.879044,475.122131 
	C59.336720,468.986664 56.384121,461.218811 53.551373,453.219604 
	C52.313686,449.724640 50.783539,446.490723 48.120918,443.790192 
	C41.945999,437.527222 37.790218,430.102386 34.667377,421.836792 
	C29.537821,408.259796 25.379627,394.385712 20.993950,380.577179 
	C19.363039,375.442169 16.917240,371.237793 11.472098,369.184967 
	C6.792740,367.420837 4.072394,363.995209 3.529909,358.709015 
	C3.090903,354.431183 1.872615,350.233337 0.999998,346.000000 
	C1.000000,308.312439 1.000000,270.624878 1.213691,232.208893 
	C3.965934,227.545013 6.493196,222.959305 11.214711,222.009689 
	C19.641462,220.314865 21.799709,214.102112 24.204311,207.326508 
	C29.627857,192.044235 31.080904,175.783829 36.170292,160.429443 
	C41.756989,143.574677 51.130161,129.727844 68.306358,123.368599 
	C78.660446,119.535133 86.833496,113.550262 94.383888,105.733978 
	C100.165833,99.748383 106.544083,94.332451 115.373093,92.184738 
	C122.022324,90.567276 128.663300,87.727287 133.797577,82.608002 
	C138.420441,77.998634 143.701981,74.235611 149.088867,70.592049 
	C168.347672,57.565819 190.007401,49.079044 210.445892,38.287025 
	C220.979813,32.724857 231.043640,26.014017 242.774582,22.823013 
	C247.478516,21.543465 253.621155,21.109610 254.529922,15.142130 
	C255.251099,10.406498 256.815002,5.814023 257.000000,1.000000 
	C274.687561,1.000000 292.375122,1.000000 310.330200,1.119872 
	C308.904358,2.093310 308.488251,2.899360 310.650513,3.690531 
	C315.758057,5.559361 319.105011,9.278157 321.892792,13.827845 
	C324.276398,17.717876 327.537476,20.757784 332.240051,21.929790 
	C346.091339,25.381897 359.009979,32.011913 373.333282,33.915421 
	C377.450409,34.462566 381.517700,35.467773 385.564392,36.443336 
	C392.850006,38.199730 399.884338,40.317387 406.224670,44.790752 
	C411.230682,48.322704 416.277954,51.943111 421.596436,54.970543 
	C430.352600,59.954754 436.935242,66.501221 440.293701,76.138443 
	C442.003845,81.045784 444.801086,85.320496 447.953827,89.497528 
	C460.136230,105.637878 474.632507,119.616508 488.666687,134.049484 
	C495.158295,140.725555 501.153931,147.891220 507.247589,154.944519 
	C511.745331,160.150543 514.199463,166.113525 514.109131,173.202698 
	C513.913940,188.525726 513.733521,203.859360 514.093018,219.175842 
	C514.401428,232.318451 515.107666,245.433060 521.841003,257.442200 
	C524.736206,262.605896 527.064270,268.119049 528.470337,274.079407 
	C531.399353,286.496246 530.876892,298.876678 529.421753,311.325836 
	C528.667969,317.774445 527.435730,324.113190 525.764038,330.430511 
	C524.189758,336.379730 524.468506,342.600311 526.179504,348.698700 
	C528.716492,357.741089 527.775818,366.564026 523.321899,374.820190 
	C522.318726,376.679779 520.588440,379.411407 518.003906,378.509003 
	C515.368164,377.588776 516.046631,374.558380 516.249023,372.315063 
	C516.517822,369.335693 517.229431,366.398499 517.569519,363.422455 
	C517.782104,361.561279 518.663025,359.516541 516.689392,357.646667 
	C514.169067,359.508148 514.192566,362.211823 513.974060,364.795166 
	C513.806274,366.778076 514.036133,368.909821 512.511047,370.469116 
	C507.889893,375.193787 506.963043,380.861847 508.061096,387.092346 
	C508.687744,390.648163 507.363098,393.440125 504.287628,395.080017 
	C497.986694,398.439758 495.092438,403.940979 493.988586,410.639221 
	C493.600891,412.991760 493.202057,415.502808 491.452240,417.033417 
	C486.347809,421.498474 484.614319,427.382996 483.486969,433.694733 
	C483.046600,436.160126 481.791779,438.361877 480.174744,440.342499 
	C477.095734,444.113861 474.876709,448.403870 472.931519,452.837555 
	C470.523621,458.325836 468.039215,463.745667 465.024475,468.965729 
	C459.049744,479.311127 452.830627,489.583862 450.030640,501.434357 
	C449.667084,502.973145 448.759186,504.685150 447.569427,505.675171 
	C442.126953,510.203766 441.436279,515.709167 442.718933,522.344788 
	C444.192444,529.967834 440.813995,535.930664 433.953613,539.765808 
	C431.918640,540.903442 429.936951,542.313904 427.742615,542.957092 
	C419.784973,545.289490 418.374847,553.296448 413.869995,558.596497 
	C413.009827,559.608521 414.355011,560.308594 415.000000,561.000000 
M282.618347,315.840088 
	C281.932556,313.848999 280.387054,312.083130 280.952118,309.750000 
	C282.530182,308.277283 284.452972,308.771576 286.214844,308.748016 
	C291.713715,308.674438 297.214508,308.757141 302.714050,308.713043 
	C310.212982,308.652893 311.328461,306.830505 307.960724,299.984039 
	C288.549408,260.521545 269.106079,221.074753 249.688095,181.615509 
	C245.609833,173.328079 245.380951,173.246063 238.370331,179.692352 
	C216.905624,199.429153 195.440659,219.165817 174.028503,238.959534 
	C168.773636,243.817215 163.492294,248.683456 158.659805,253.946716 
	C155.806747,257.054108 154.093292,261.095245 156.047775,265.482330 
	C158.055588,269.989105 162.111450,271.509369 166.657104,271.679504 
	C172.982147,271.916260 179.317673,271.902588 185.649033,271.934204 
	C195.081070,271.981354 195.091537,271.958344 195.082245,281.147919 
	C195.051071,311.980469 194.980286,342.813019 194.991470,373.645569 
	C194.995850,385.739990 201.804489,392.514923 213.887741,392.570374 
	C224.053879,392.617035 234.220673,392.592957 244.386887,392.541321 
	C251.782852,392.503754 252.889099,391.234833 251.420288,383.873322 
	C249.442673,373.961853 245.429459,364.849304 240.097473,356.282928 
	C234.903214,347.937836 229.483261,339.712555 224.707870,331.131165 
	C209.305771,303.453461 213.880768,271.179932 236.018860,249.367188 
	C239.945862,245.497864 240.662338,245.561523 243.298203,250.187042 
	C249.402054,260.898285 255.497299,271.614532 261.546631,282.356598 
	C262.322540,283.734436 263.685608,284.982605 262.984833,287.340424 
	C261.176361,287.438904 259.225372,287.601929 257.271912,287.641113 
	C250.942429,287.768158 244.601151,287.659088 238.285950,288.018768 
	C234.348892,288.243042 233.713303,290.003113 235.955551,293.245300 
	C236.521057,294.062988 237.207336,294.803772 237.885635,295.535889 
	C257.931488,317.171631 277.976959,338.807770 298.047821,360.420319 
	C299.468872,361.950500 300.750488,363.745972 304.086365,364.564728 
	C296.824066,348.076141 289.874512,332.297607 282.618347,315.840088 
M294.515259,190.992188 
	C303.741058,199.737274 309.965240,210.345795 312.034821,222.813721 
	C313.846008,233.724915 319.444092,241.089783 328.013916,247.921936 
	C348.133545,263.961823 355.739532,295.431976 346.884369,319.296661 
	C341.775360,333.065491 332.915680,344.615204 325.526367,357.036102 
	C320.543732,365.411469 316.732697,374.225281 314.664429,383.749817 
	C313.308838,389.992462 315.404846,392.558563 321.705658,392.580597 
	C332.037750,392.616699 342.370117,392.656097 352.702118,392.618225 
	C364.598053,392.574646 371.626404,385.519562 371.635284,373.618103 
	C371.656586,345.120911 371.639862,316.623718 371.641357,288.126526 
	C371.642212,272.138367 371.645020,272.183685 387.727722,272.091003 
	C393.203522,272.059479 398.777679,272.631683 404.082062,270.762848 
	C410.923981,268.352356 412.982178,262.681610 409.468872,256.405579 
	C407.558868,252.993561 404.665100,250.476654 401.846649,247.872971 
	C380.306946,227.974350 358.794525,208.046219 337.251190,188.151535 
	C323.664124,175.604263 310.112762,163.016724 296.402222,150.605392 
	C288.225677,143.203659 278.698822,143.131058 270.177032,150.164551 
	C267.098877,152.705109 264.239258,155.519775 261.371185,158.303421 
	C256.765045,162.773941 257.276642,167.654999 262.952606,170.887573 
	C269.308533,174.507446 275.229340,178.896729 282.065613,181.680115 
	C286.774048,183.597198 290.754944,186.568375 294.515259,190.992188 
M292.499695,425.854767 
	C297.331665,425.854370 302.166168,425.757263 306.994751,425.884857 
	C310.715912,425.983154 313.101471,425.059021 313.030029,420.661346 
	C312.958862,416.279114 310.399994,415.441528 306.801849,415.448486 
	C290.806396,415.479340 274.810730,415.500580 258.815491,415.436523 
	C255.246307,415.422180 253.178741,416.425690 253.132339,420.507874 
	C253.083557,424.802185 255.154861,425.923065 259.009430,425.880829 
	C269.838379,425.762115 280.669525,425.847473 292.499695,425.854767 
M296.490173,409.572418 
	C300.482208,409.561523 304.474548,409.576721 308.466187,409.532288 
	C312.326233,409.489319 313.001801,406.942535 312.991364,403.776581 
	C312.981171,400.682709 311.562927,399.201141 308.436554,399.207550 
	C291.469818,399.242279 274.502960,399.242249 257.536163,399.247864 
	C254.693604,399.248810 253.338852,400.556946 253.219818,403.489075 
	C253.049576,407.682526 254.779846,409.610107 259.064453,409.579834 
	C271.206940,409.494080 283.350464,409.559845 296.490173,409.572418 
M275.625183,442.605286 
	C282.258484,442.605896 288.891846,442.586365 295.525024,442.615540 
	C298.886292,442.630341 299.673431,440.661316 299.639374,437.750610 
	C299.605438,434.855133 299.354919,432.330719 295.550323,432.338867 
	C287.259155,432.356689 278.967926,432.342712 270.676727,432.350647 
	C268.023956,432.353180 266.874603,433.867554 266.521973,436.348450 
	C265.786224,441.524078 267.124908,442.576355 275.625183,442.605286 
z"/>
</svg>